<svg width="75" height="75" viewBox="0 0 75 75" fill="none" xmlns="http://www.w3.org/2000/svg">
<g clip-path="url(#clip0_931_268)">
<path d="M37.4999 75.0014C58.2106 75.0014 74.9999 58.2121 74.9999 37.5014C74.9999 16.7908 58.2106 0.00149536 37.4999 0.00149536C16.7893 0.00149536 0 16.7908 0 37.5014C0 58.2121 16.7893 75.0014 37.4999 75.0014Z" fill="#99FF00"/>
<path fill-rule="evenodd" clip-rule="evenodd" d="M39.0805 14.8145C38.9237 14.5433 38.6982 14.318 38.4268 14.1614C38.1554 14.0049 37.8475 13.9224 37.5342 13.9224C37.2208 13.9224 36.913 14.0049 36.6416 14.1614C36.3701 14.318 36.1447 14.5433 35.9878 14.8145L17.2741 47.2339C16.6894 48.2379 17.2217 49.6452 18.5322 49.8065C19.8628 49.9678 22.3467 50.0766 25.3951 49.2823L27.9757 53.1129C28.0835 53.2727 28.2323 53.4004 28.4066 53.4828C28.5808 53.5651 28.774 53.599 28.9659 53.5808C29.1577 53.5627 29.3412 53.4932 29.4969 53.3796C29.6526 53.266 29.7748 53.1126 29.8507 52.9355L31.8104 48.3911L33.7701 52.9355C33.8533 53.1273 33.9908 53.2905 34.1656 53.4052C34.3404 53.5199 34.5449 53.581 34.7539 53.581C34.963 53.581 35.1675 53.5199 35.3423 53.4052C35.5171 53.2905 35.6546 53.1273 35.7378 52.9355L37.6975 48.3911L39.6572 52.9355C39.7404 53.1273 39.8779 53.2905 40.0527 53.4052C40.2275 53.5199 40.432 53.581 40.641 53.581C40.8501 53.581 41.0546 53.5199 41.2294 53.4052C41.4042 53.2905 41.5417 53.1273 41.6249 52.9355L43.5886 48.3871L45.5483 52.9355C45.625 53.1114 45.7475 53.2636 45.903 53.3761C46.0586 53.4885 46.2414 53.5572 46.4326 53.5749C46.6237 53.5926 46.816 53.5587 46.9896 53.4768C47.1632 53.3948 47.3115 53.2677 47.4193 53.1089L49.9757 49.3186C52.2741 49.8629 54.9072 49.8145 56.3104 49.7379C56.6099 49.7211 56.9 49.6276 57.1529 49.4664C57.4059 49.3052 57.6131 49.0817 57.7548 48.8174C57.8965 48.553 57.9679 48.2567 57.9621 47.9568C57.9563 47.6569 57.8735 47.3635 57.7217 47.1049L39.0805 14.8145ZM48.4555 47.7379C48.5442 47.47 48.7348 47.2478 48.9862 47.1195C49.2375 46.9912 49.5293 46.9671 49.7983 47.0524C51.6007 47.621 53.9515 47.6774 55.5523 47.625L37.5362 16.4234L19.4515 47.7419C20.7822 47.8347 22.9193 47.7944 25.4475 47.0444C25.7257 46.9637 26.012 47 26.2459 47.125C26.476 47.1971 26.6749 47.3449 26.8104 47.5444L28.6572 50.2863L30.8265 45.2581C30.9098 45.0663 31.0472 44.9031 31.222 44.7884C31.3968 44.6737 31.6013 44.6126 31.8104 44.6126C32.0194 44.6126 32.2239 44.6737 32.3987 44.7884C32.5735 44.9031 32.711 45.0663 32.7943 45.2581L34.7539 49.8065L36.7136 45.2581C36.7969 45.0663 36.9343 44.9031 37.1091 44.7884C37.2839 44.6737 37.4884 44.6126 37.6975 44.6126C37.9065 44.6126 38.111 44.6737 38.2858 44.7884C38.4606 44.9031 38.5981 45.0663 38.6814 45.2581L40.641 49.8065L42.6047 45.2581C42.688 45.0663 42.8255 44.9031 43.0003 44.7884C43.1751 44.6737 43.3796 44.6126 43.5886 44.6126C43.7977 44.6126 44.0022 44.6737 44.177 44.7884C44.3518 44.9031 44.4892 45.0663 44.5725 45.2581L46.7378 50.2863L48.4555 47.7379Z" fill="white"/>
<path d="M36.5971 32.5C36.6597 32.3911 36.7498 32.3006 36.8585 32.2377C36.9672 32.1748 37.0905 32.1417 37.2161 32.1417C37.3417 32.1417 37.465 32.1748 37.5737 32.2377C37.6824 32.3006 37.7725 32.3911 37.835 32.5L41.702 39.1936C41.7651 39.302 41.7985 39.4252 41.7988 39.5507C41.7991 39.6762 41.7663 39.7995 41.7037 39.9083C41.6412 40.0171 41.551 40.1074 41.4424 40.1702C41.3338 40.2331 41.2105 40.2661 41.085 40.2661H33.3471C33.2223 40.2657 33.0997 40.2326 32.9916 40.1699C32.8835 40.1073 32.7938 40.0175 32.7314 39.9093C32.6689 39.8011 32.6359 39.6785 32.6357 39.5536C32.6355 39.4287 32.6681 39.306 32.7302 39.1976L36.5971 32.5Z" fill="white"/>
</g>
<defs>
<clipPath id="clip0_931_268">
<rect width="75" height="75" fill="white"/>
</clipPath>
</defs>
</svg>
