<svg width="75" height="72" viewBox="0 0 75 72" fill="none" xmlns="http://www.w3.org/2000/svg">
<path d="M32.3728 6.36548C28.2597 7.09921 26.61 4.34509 24.0005 5.64381C21.2449 7.01484 22.5587 10.3505 19.3812 13.1513C16.1449 16.0049 12.9298 14.1774 11.152 16.7597C9.38168 19.3315 12.2036 21.6743 10.7196 25.566C9.14514 29.6926 4.99739 29.6112 4.65689 32.7842C4.3405 35.7251 7.8419 36.3775 8.4099 40.4349C9.00502 44.6821 5.51718 46.4538 6.67728 49.3857C7.76055 52.1233 11.0179 51.1259 13.4631 54.439C16.0169 57.8982 13.7961 60.7879 16.2067 63.1006C18.6685 65.463 21.5643 63.0011 25.4454 65.4102C29.0417 67.6416 28.4194 70.9124 31.2203 71.6176C34.2697 72.3859 35.5925 68.6555 39.8819 68.7309C43.7629 68.7986 44.6549 71.8857 47.6772 71.3298C50.6723 70.7784 50.3635 67.6401 54.1737 65.6995C58.2642 63.6158 60.836 66.1048 63.2692 63.9669C65.7898 61.7521 63.5706 58.6063 66.3006 55.1606C68.7217 52.1052 71.6702 53.0604 72.7972 50.3967C73.8865 47.8234 71.3177 46.5006 71.6416 42.4568C72.0032 37.9474 75.3916 37.1399 74.9622 33.7952C74.5479 30.5634 71.3056 30.696 69.909 26.7215C68.3737 22.3508 71.4548 19.8091 69.6197 17.1936C67.8253 14.6354 64.5393 16.5819 61.2458 13.7284C58.0021 10.9185 59.2842 7.37794 56.4819 6.07772C53.9116 4.88597 52.3552 7.63858 48.542 6.94403C44.2661 6.1651 43.9046 2.27951 40.4574 2.18007C37.1729 2.08515 36.733 5.58806 32.3728 6.36699V6.36548Z" fill="black"/>
<path d="M30.9783 5.18731C26.8652 5.92103 25.2154 3.16692 22.606 4.46563C19.8503 5.83666 21.1641 9.17234 17.9866 11.9732C14.7504 14.8267 11.5353 12.9992 9.75744 15.5815C7.98715 18.1533 10.8091 20.4962 9.32503 24.3878C7.75061 28.5144 3.60286 28.4331 3.26236 31.606C2.94597 34.547 6.44737 35.1993 7.01537 39.2567C7.61049 43.5039 4.12265 45.2757 5.28275 48.2076C6.36602 50.9451 9.62335 49.9477 12.0686 53.2608C14.6223 56.72 12.4016 59.6097 14.8122 61.9224C17.274 64.2848 20.1697 61.823 24.0508 64.2321C27.6471 66.4634 27.0249 69.7343 29.8257 70.4394C32.8751 71.2078 34.198 67.4773 38.4873 67.5527C42.3684 67.6205 43.2603 70.7076 46.2826 70.1516C49.2778 69.6002 48.9689 66.4619 52.7792 64.5213C56.8697 62.4377 59.4415 64.9266 61.8747 62.7887C64.3953 60.574 62.176 57.4281 64.9061 53.9825C67.3272 50.927 70.2757 51.8822 71.4026 49.2185C72.4919 46.6452 69.9231 45.3224 70.247 41.2786C70.6086 36.7692 73.997 35.9617 73.5677 32.617C73.1533 29.3853 69.9111 29.5178 68.5144 25.5434C66.9792 21.1726 70.0602 18.631 68.2252 16.0154C66.4308 13.4572 63.1448 15.4038 59.8513 12.5502C56.6075 9.74034 57.8897 6.19976 55.0874 4.89954C52.5171 3.7078 50.9607 6.46041 47.1474 5.76585C42.8716 4.98692 42.51 1.10133 39.0629 1.00189C35.7784 0.906975 35.3385 4.40989 30.9783 5.18881V5.18731Z" fill="#1778F3"/>
<path d="M30.9783 5.18731C26.8652 5.92103 25.2154 3.16692 22.606 4.46563C19.8503 5.83666 21.1641 9.17234 17.9866 11.9732C14.7504 14.8267 11.5353 12.9992 9.75744 15.5815C7.98715 18.1533 10.8091 20.4962 9.32503 24.3878C7.75061 28.5144 3.60286 28.4331 3.26236 31.606C2.94597 34.547 6.44737 35.1993 7.01537 39.2567C7.61049 43.5039 4.12265 45.2757 5.28275 48.2076C6.36602 50.9451 9.62335 49.9477 12.0686 53.2608C14.6223 56.72 12.4016 59.6097 14.8122 61.9224C17.274 64.2848 20.1697 61.823 24.0508 64.2321C27.6471 66.4634 27.0249 69.7343 29.8257 70.4394C32.8751 71.2078 34.198 67.4773 38.4873 67.5527C42.3684 67.6205 43.2603 70.7076 46.2826 70.1516C49.2778 69.6002 48.9689 66.4619 52.7792 64.5213C56.8697 62.4377 59.4415 64.9266 61.8747 62.7887C64.3953 60.574 62.176 57.4281 64.9061 53.9825C67.3272 50.927 70.2757 51.8822 71.4026 49.2185C72.4919 46.6452 69.9231 45.3224 70.2471 41.2786C70.6086 36.7692 73.9971 35.9617 73.5677 32.617C73.1533 29.3853 69.9111 29.5178 68.5144 25.5434C66.9792 21.1726 70.0602 18.631 68.2252 16.0154C66.4308 13.4572 63.1448 15.4038 59.8513 12.5502C56.6075 9.74034 57.8897 6.19976 55.0874 4.89954C52.5171 3.7078 50.9607 6.46041 47.1474 5.76585C42.8716 4.98692 42.51 1.10133 39.0629 1.00189C35.7784 0.906975 35.3385 4.40989 30.9783 5.18881V5.18731Z" stroke="black" stroke-width="2" stroke-linejoin="round"/>
<path d="M60.3787 46.0998C59.2578 44.905 57.3157 44.2135 55.6509 44.6263C53.4723 45.1672 53.2343 47.2343 51.0451 47.5175C49.2462 47.7495 47.8662 46.5518 47.7833 46.478C46.3791 45.2199 46.3143 43.2071 46.3083 42.0274C46.2721 34.5846 48.4146 26.3012 48.6692 25.3159C49.2146 23.2021 50.0884 19.7775 51.1386 15.4429L50.102 13.9905C50.102 13.9905 45.4058 14.0478 43.7546 13.647C43.274 14.5585 42.5342 15.9491 41.6091 17.632C38.4799 23.3331 33.6812 31.5879 26.6845 40.5192C23.7209 44.3009 19.8941 48.8042 15.9091 48.8313C15.4993 48.8343 14.2171 48.8434 12.9802 48.0599C10.5545 46.5247 10.4023 43.2824 10.3752 42.7114C10.3511 42.2037 10.1643 38.2096 13.0676 36.477C13.3192 36.3263 15.0503 35.3274 16.923 35.8788C18.9223 36.4679 18.9208 38.19 20.6444 38.7324C22.5367 39.329 24.9865 38.0212 26.2234 36.3248C28.0525 33.8162 27.3203 30.3299 25.9809 28.2824C23.4603 24.4315 17.7562 24.094 14.2005 24.9241C6.61166 26.6944 3.734 34.9673 3.2338 36.5267C3.00479 37.2393 -0.246512 47.8836 5.91861 52.967C9.94583 56.2891 15.5083 55.1893 16.7618 54.9422C22.0215 53.9026 25.4279 49.9357 30.7554 43.8941C32.6507 41.7456 34.0926 39.8518 35.0583 38.5199C36.8406 39.1542 38.6245 39.79 40.4068 40.4243C40.2426 41.6311 39.5887 47.3608 43.4638 52.0796C44.2412 53.0258 46.5599 55.7754 50.5434 56.5844C51.1566 56.7095 57.5688 57.9208 60.3486 53.8378C61.7738 51.7436 62.3238 48.1714 60.3787 46.0983V46.0998ZM41.4464 30.0421C41.3635 30.4263 41.3093 30.6779 41.2807 30.812C41.246 30.9612 41.1888 31.1766 41.133 31.481C40.9643 32.3051 40.901 32.8219 40.8573 33.7063L40.7247 36.1244L37.7265 35.0984L39.1036 33.1066C39.5511 32.4151 39.991 31.6482 40.2034 31.2173C40.3044 31.0184 40.4686 30.6779 40.6976 30.1988C40.9055 29.7318 41.0758 29.3762 41.1873 29.1442L41.6076 29.2873C41.579 29.4214 41.5248 29.6715 41.4464 30.0406V30.0421Z" fill="black" stroke="black" stroke-width="4" stroke-miterlimit="10"/>
<path d="M51.9023 55.1381C50.4634 55.1381 49.3319 54.9317 49.0201 54.8684C46.2449 54.3049 43.7921 52.747 41.7325 50.2385C38.2055 45.9431 38.2944 40.8628 38.5596 38.5968L33.7414 36.8807C32.4411 38.6601 31.04 40.4017 29.5755 42.062L29.2546 42.4251C24.0748 48.301 20.6533 52.1836 15.3801 53.2246C14.8543 53.3286 13.4591 53.6043 11.7461 53.6043C8.71776 53.6043 6.19115 52.7862 4.23555 51.1741C-2.17064 45.8904 1.28557 34.8121 1.43623 34.3421C2.18502 32.0023 5.21033 24.2356 12.6651 22.497C13.7318 22.2484 14.916 22.1173 16.0927 22.1173C20.0265 22.1173 23.2115 23.5365 24.8312 26.0104C25.5815 27.157 26.0801 28.6199 26.1992 30.0271C26.3423 31.716 25.9491 33.2513 25.0632 34.4656C23.9031 36.0566 21.8947 37.1685 20.1817 37.1685C19.796 37.1685 19.4254 37.1143 19.0819 37.0058C18.1538 36.7135 17.6747 36.1229 17.2121 35.5519C16.7436 34.9749 16.3021 34.4295 15.368 34.1537C15.0305 34.0543 14.6735 34.0031 14.3058 34.0031C13.087 34.0031 12.0806 34.547 11.8018 34.7142C9.28124 36.2193 9.23906 39.6153 9.28576 40.6202C9.33699 41.7095 9.67749 44.3853 11.722 45.6794C12.4723 46.154 13.3612 46.3951 14.3631 46.3951H14.455C18.0679 46.3695 21.6326 42.4522 24.9472 38.2216C32.0012 29.218 36.8239 20.8758 39.8387 15.3827C40.5649 14.0598 41.285 12.722 41.9811 11.4021C42.0444 11.2816 42.1694 11.2078 42.302 11.2078C42.3306 11.2078 42.3593 11.2108 42.3879 11.2183L49.7719 13.0142C49.9662 13.0609 50.0853 13.2568 50.0386 13.4527C49.2295 16.7959 48.3978 20.1195 47.5677 23.3316C47.0072 25.4997 45.1842 33.0961 45.2188 39.9512C45.2234 40.9185 45.2339 42.9329 46.5733 44.1321C46.6185 44.1728 47.6807 45.1099 49.1286 45.1099C49.2687 45.1099 49.4088 45.1009 49.5474 45.0828C50.5568 44.9533 51.0902 44.4048 51.7079 43.7721C52.2955 43.1679 52.9629 42.4854 54.1125 42.1991C54.462 42.1117 54.8311 42.0681 55.2108 42.0681C56.6783 42.0681 58.2045 42.7219 59.1913 43.7766C60.4117 45.0783 60.597 46.7401 60.5382 47.9062C60.4644 49.3451 59.9763 50.8261 59.1973 51.9696C57.415 54.5881 54.2466 55.1381 51.9038 55.1381H51.9023ZM38.9362 33.5511L39.0417 31.6121C39.0869 30.7066 39.1532 30.1732 39.3249 29.334C39.3686 29.0945 39.4153 28.9031 39.4485 28.763L39.4741 28.6561C39.4891 28.5883 39.5117 28.4843 39.5419 28.3457C39.3234 28.8022 39.1727 29.1156 39.0748 29.3069C38.8428 29.777 38.3833 30.5695 37.9569 31.2294L36.8465 32.8369L38.9362 33.5526V33.5511Z" fill="#CBDF00"/>
<path d="M42.3033 11.5739L49.6873 13.3698C48.6386 17.7044 47.7648 21.1304 47.2179 23.2427C46.9633 24.2281 44.8209 32.5115 44.857 39.9543C44.863 41.1339 44.9278 43.1468 46.332 44.4048C46.4073 44.4726 47.5614 45.4745 49.1283 45.4745C49.279 45.4745 49.4357 45.4655 49.5938 45.4444C51.783 45.1612 52.021 43.0941 54.1996 42.5532C54.5281 42.4718 54.8686 42.4327 55.2106 42.4327C56.5997 42.4327 58.028 43.067 58.9274 44.0252C60.8725 46.0983 60.3225 49.6705 58.8973 51.7647C57.2038 54.2522 54.1604 54.775 51.902 54.775C50.4556 54.775 49.3302 54.561 49.0906 54.5113C45.1071 53.7037 42.7884 50.9526 42.011 50.0065C38.1359 45.2877 38.7898 39.558 38.954 38.3512C37.1717 37.7169 35.3879 37.0811 33.6055 36.4468C32.6398 37.7787 31.1964 39.6725 29.3026 41.821C23.9767 47.8626 20.5687 51.8295 15.309 52.8691C14.7681 52.976 13.4227 53.2412 11.7458 53.2412C9.53863 53.2412 6.75438 52.7817 4.46582 50.8939C-1.6978 45.809 1.5535 35.1662 1.781 34.4536C2.2812 32.8942 5.15886 24.6213 12.7478 22.851C13.7346 22.6205 14.8887 22.4804 16.094 22.4804C19.2263 22.4804 22.7081 23.4296 24.5281 26.2093C25.8675 28.2568 26.6012 31.7431 24.7706 34.2517C23.7416 35.6634 21.8719 36.8054 20.183 36.8054C19.8425 36.8054 19.5095 36.7587 19.1916 36.6593C17.4695 36.1169 17.4695 34.3948 15.4702 33.8057C15.071 33.6882 14.6792 33.6415 14.3056 33.6415C12.927 33.6415 11.8136 34.2848 11.6148 34.4038C8.71149 36.1365 8.89832 40.129 8.92242 40.6383C8.94954 41.2093 9.10171 44.4515 11.5274 45.9868C12.683 46.7175 13.8747 46.7597 14.3629 46.7597C14.3975 46.7597 14.4291 46.7597 14.4578 46.7597C18.4428 46.7326 22.2696 42.2293 25.2332 38.4476C32.23 29.5163 37.0286 21.2615 40.1578 15.5604C41.0814 13.8775 41.8227 12.4854 42.3033 11.5754M39.2719 34.0498L39.4045 31.6316C39.4482 30.7473 39.5115 30.2305 39.6802 29.4064C39.736 29.102 39.7932 28.8881 39.8279 28.7374C39.858 28.6033 39.9108 28.3517 39.9936 27.9675C40.072 27.5984 40.1247 27.3468 40.1548 27.2142L39.7345 27.0711C39.623 27.3031 39.4527 27.6572 39.2448 28.1257C39.0158 28.6048 38.8516 28.9438 38.7506 29.1442C38.5382 29.5751 38.0983 30.3405 37.6508 31.0335L36.2738 33.0253L39.2719 34.0513M42.3033 10.8477C42.0381 10.8477 41.7895 10.9923 41.6615 11.2349C40.9669 12.5532 40.2467 13.8896 39.522 15.2094C36.5133 20.6905 31.6996 29.0161 24.6622 37.9987C21.4048 42.157 17.9125 46.0094 14.4533 46.0335H14.3644C13.4318 46.0335 12.6091 45.812 11.9176 45.3736C10.0162 44.1698 9.69834 41.6372 9.65012 40.6036C9.60492 39.6499 9.64108 36.4272 11.9899 35.0261C12.2491 34.8709 13.1832 34.3662 14.3086 34.3662C14.6416 34.3662 14.964 34.4114 15.2683 34.5018C16.094 34.7458 16.4827 35.225 16.9332 35.7809C17.4062 36.3655 17.9441 37.0269 18.9762 37.3523C19.3558 37.4713 19.7626 37.5316 20.186 37.5316C22.0075 37.5316 24.1364 36.3594 25.3597 34.6796C26.2984 33.3929 26.7142 31.7733 26.5635 29.997C26.44 28.5325 25.9202 27.0078 25.1383 25.8131C24.2087 24.3938 22.8407 23.3226 21.0719 22.628C19.618 22.057 17.8989 21.7557 16.097 21.7557C14.8932 21.7557 13.6788 21.8898 12.5865 22.1459C9.20115 22.9354 6.31746 25.0115 4.01383 28.3186C2.36256 30.69 1.47516 33.0434 1.09398 34.2336C0.990024 34.5575 0.0785139 37.4985 0.00468913 41.021C-0.0374965 43.0489 0.205071 44.8945 0.727871 46.5066C1.38627 48.539 2.48912 50.2038 4.00931 51.4559C6.0312 53.1237 8.63616 53.9689 11.7504 53.9689C13.4996 53.9689 14.9188 53.6887 15.4537 53.5832C20.8474 52.5165 24.3021 48.5993 29.5301 42.6677L29.851 42.3046C31.2627 40.7046 32.6142 39.0277 33.8767 37.3162L36.0417 38.086L38.1721 38.8439C37.931 41.2831 37.9853 46.2429 41.4566 50.469C43.5703 53.0438 46.0924 54.6439 48.952 55.2239C49.2729 55.2887 50.4345 55.5012 51.9065 55.5012C54.3382 55.5012 57.6287 54.9241 59.5014 52.1745C61.1693 49.7247 61.6107 45.8226 59.4608 43.5295C58.4061 42.4055 56.7805 41.7065 55.2151 41.7065C54.8068 41.7065 54.4075 41.7547 54.0294 41.8481C52.7789 42.1585 52.0753 42.8816 51.453 43.5189C50.8594 44.1276 50.3909 44.6082 49.5065 44.7227C49.3844 44.7378 49.2594 44.7468 49.1343 44.7468C47.8266 44.7468 46.8322 43.8715 46.8217 43.8625C45.6028 42.7701 45.5938 40.8658 45.5892 39.9497C45.5561 33.1398 47.3686 25.581 47.926 23.4265C48.7562 20.2114 49.5878 16.8863 50.3984 13.5386C50.4933 13.1498 50.2537 12.7566 49.865 12.6632L48.6567 12.3694L42.4811 10.8673C42.4238 10.8537 42.3666 10.8462 42.3093 10.8462L42.3033 10.8477ZM37.4173 32.6471L38.2489 31.4433C38.2489 31.4433 38.258 31.4313 38.261 31.4237C38.4222 31.1736 38.5894 30.9039 38.7476 30.6388C38.7175 30.9265 38.6964 31.2309 38.6783 31.594L38.5985 33.0509L37.4158 32.6456L37.4173 32.6471Z" fill="black"/>
</svg>
